<svg width="160" height="64" xmlns="http://www.w3.org/2000/svg"><g fill="none" fill-rule="evenodd"><path fill="#EB7565" d="M32 0h64v64H32z"/><circle stroke="#030303" stroke-width="4" cx="16" cy="16" r="14"/><circle stroke="#FFF7F0" stroke-width="4" cx="64" cy="32" r="14"/><path d="M128 32h4v4h-4zm14 0h4v4h-4zm14 0h4v4h-4zm-28 24h4v4h-4zm14 0h4v4h-4zm14 0h4v4h-4zm-28 4h4v4h-4zm14 0h4v4h-4zm14 0h4v4h-4zM128 0h4v4h-4zm14 0h4v4h-4zm14 0h4v4h-4zm-28 4h4v4h-4zm14 0h4v4h-4zm14 0h4v4h-4zm-28 24h4v4h-4zm14 0h4v4h-4zm14 0h4v4h-4z" fill="#030303"/><path fill="#FFF7F0" d="M96 32l32 32V32z"/><path fill="#552049" d="M96 32l32 32V32z"/><path fill="#F39E9E" d="M32 64L0 32v32z"/><path fill="#FFF7F0" d="M96 32l32-32v32z"/></g></svg>