<svg width="128" height="64" xmlns="http://www.w3.org/2000/svg"><g fill="none" fill-rule="evenodd"><g transform="translate(64)"><circle stroke="#FFF7F0" stroke-width="4" cx="48" cy="16" r="14"/><path fill="#755CDE" d="M0 0h32v32H0z"/><path d="M32 32h4v4h-4zm14 0h4v4h-4zm14 0h4v4h-4zM32 46h4v4h-4zm14 0h4v4h-4zm14 0h4v4h-4zM32 60h4v4h-4zm14 0h4v4h-4zm14 0h4v4h-4z" fill="#030303"/><path fill="#F39E9E" d="M0 32l32 32V32z"/></g><path d="M32 32h4v4h-4zm14 0h4v4h-4zm14 0h4v4h-4zM32 56h4v4h-4zm14 0h4v4h-4zm14 0h4v4h-4zm-28 4h4v4h-4zm14 0h4v4h-4zm14 0h4v4h-4zM32 0h4v4h-4zm14 0h4v4h-4zm14 0h4v4h-4zM32 4h4v4h-4zm14 0h4v4h-4zm14 0h4v4h-4zM32 28h4v4h-4zm14 0h4v4h-4zm14 0h4v4h-4z" fill="#030303"/><path fill="#61C4B7" d="M0 32l32 32V32z"/><path fill="#FFF7F0" d="M32 0L0 32V0z"/></g></svg>